<svg width="76" height="56" viewBox="0 0 76 56" fill="none" xmlns="http://www.w3.org/2000/svg">
<path d="M34.332 34.4204V10.9204C34.332 9.42871 33.2534 8.2124 31.6929 8.2124C30.6143 8.2124 29.9028 8.69434 28.7095 9.7959L19.4839 18.356C19.3691 18.4478 19.2314 18.5396 19.0938 18.5396H18.4053L34.332 34.4204ZM42.2495 51.1045C42.938 51.793 44.0854 51.793 44.751 51.1045C45.4395 50.3931 45.4395 49.2915 44.751 48.603L5.46191 9.31396C4.77344 8.62549 3.62598 8.62549 2.9375 9.31396C2.24902 9.97949 2.24902 11.1499 2.9375 11.8154L42.2495 51.1045ZM11.6812 37.771H18.2217C18.4512 37.771 18.6348 37.8398 18.7954 37.9775L28.7095 47.249C29.7881 48.2588 30.6602 48.6948 31.7158 48.6948C32.9092 48.6948 33.8042 48.0981 34.1714 46.79L8.00928 20.6509C7.34375 21.4082 6.99951 22.5557 6.99951 24.0933V32.8828C6.99951 36.2104 8.56006 37.771 11.6812 37.771Z" fill="black"/>
</svg>
