<svg width="76" height="56" viewBox="0 0 76 56" fill="none" xmlns="http://www.w3.org/2000/svg">
<path d="M31.7388 48.6948C33.2534 48.6948 34.332 47.6162 34.332 46.1245V10.9204C34.332 9.42871 33.2534 8.2124 31.6929 8.2124C30.6143 8.2124 29.8799 8.67139 28.7324 9.7959L18.9331 18.9756C18.7954 19.1133 18.5889 19.1821 18.3594 19.1821H11.7959C8.6748 19.1821 6.99951 20.9033 6.99951 24.208V32.7451C6.99951 36.0728 8.6748 37.771 11.7959 37.771H18.3594C18.5889 37.771 18.7954 37.8398 18.9331 37.9775L28.7324 47.249C29.7651 48.2588 30.6602 48.6948 31.7388 48.6948ZM42.5249 38.207C43.2822 38.7349 44.3608 38.5742 44.9805 37.6792C46.7476 35.3613 47.8032 31.9419 47.8032 28.4307C47.8032 24.9194 46.7476 21.5229 44.9805 19.1821C44.3608 18.2871 43.2822 18.1035 42.5249 18.6543C41.584 19.2969 41.4463 20.4443 42.1577 21.3853C43.4888 23.2212 44.2461 25.7686 44.2461 28.4307C44.2461 31.0928 43.4658 33.6172 42.1577 35.4761C41.4692 36.4399 41.584 37.5415 42.5249 38.207Z" fill="black"/>
</svg>
