<svg width="76" height="56" viewBox="0 0 76 56" fill="none" xmlns="http://www.w3.org/2000/svg">
<path d="M31.7388 48.6948C33.2534 48.6948 34.332 47.6162 34.332 46.1245V10.9204C34.332 9.42871 33.2534 8.2124 31.6929 8.2124C30.6372 8.2124 29.9028 8.67139 28.7324 9.7959L18.9561 18.9756C18.7954 19.1133 18.6118 19.1821 18.3823 19.1821H11.7959C8.69775 19.1821 6.99951 20.9033 6.99951 24.208V32.7451C6.99951 36.0728 8.69775 37.771 11.7959 37.771H18.3823C18.6118 37.771 18.7954 37.8398 18.9561 37.9775L28.7324 47.249C29.7881 48.2588 30.6831 48.6948 31.7388 48.6948Z" fill="black"/>
</svg>
