<svg width="76" height="56" viewBox="0 0 76 56" fill="none" xmlns="http://www.w3.org/2000/svg">
<path d="M31.7388 48.6948C33.2534 48.6948 34.332 47.6162 34.332 46.1245V10.9204C34.332 9.42871 33.2534 8.2124 31.6929 8.2124C30.6143 8.2124 29.9028 8.69434 28.7324 9.7959L18.9331 18.9756C18.7954 19.1133 18.5889 19.1821 18.3594 19.1821H11.7959C8.6748 19.1821 6.99951 20.9033 6.99951 24.208V32.7451C6.99951 36.0728 8.6748 37.771 11.7959 37.771H18.3594C18.5889 37.771 18.7954 37.8398 18.9331 37.9775L28.7324 47.249C29.7651 48.2588 30.6602 48.6948 31.7388 48.6948ZM61.1138 22.9917H55.6748V22.854L61.2744 15.4873C61.7793 14.8447 61.9629 14.4546 61.9629 14.0186C61.9629 13.2612 61.3662 12.8022 60.5859 12.8022H52.875C52.1177 12.8022 51.5898 13.2842 51.5898 14.0415C51.5898 14.8218 52.1177 15.3037 52.875 15.3037H58.0156V15.3955L52.3472 22.7622C51.8423 23.4048 51.6816 23.7949 51.6816 24.2998C51.6816 24.9883 52.2324 25.4932 53.0356 25.4932H61.1138C61.8711 25.4932 62.3989 25.0112 62.3989 24.231C62.3989 23.4966 61.8711 22.9917 61.1138 22.9917ZM47.6196 32.1714H43.7871V32.0796L47.7573 26.8931C48.2163 26.2964 48.4229 25.9062 48.4229 25.4702C48.4229 24.7588 47.8491 24.3457 47.0918 24.3457H41.2397C40.5283 24.3457 40.0464 24.8047 40.0464 25.4932C40.0464 26.2734 40.5283 26.7095 41.2397 26.7095H44.6821V26.8013L40.7349 31.9648C40.2988 32.5615 40.1152 32.9287 40.1152 33.4106C40.1152 34.0762 40.6201 34.5581 41.3545 34.5581H47.6196C48.3311 34.5581 48.813 34.1221 48.813 33.3647C48.813 32.6533 48.3311 32.1714 47.6196 32.1714ZM57.9927 40.6167H54.7339V40.5249L58.0845 36.0498C58.5435 35.4302 58.7041 35.1089 58.7041 34.6958C58.7041 34.0073 58.1763 33.5942 57.4878 33.5942H52.3242C51.6357 33.5942 51.1768 34.0303 51.1768 34.7188C51.1768 35.4302 51.6357 35.8433 52.3242 35.8433H55.1699V35.9351L51.8423 40.4102C51.4292 40.9839 51.2227 41.3281 51.2227 41.7642C51.2227 42.4067 51.7505 42.8657 52.439 42.8657H57.9927C58.6353 42.8657 59.0942 42.4297 59.0942 41.7183C59.0942 41.0527 58.6353 40.6167 57.9927 40.6167Z" fill="black"/>
</svg>
