<svg width="56" height="56" viewBox="0 0 56 56" xmlns="http://www.w3.org/2000/svg">
<path fill-rule="evenodd" clip-rule="evenodd" d="M41.3313 7.16872H14.6687C12.6475 7.16872 11.3541 7.1716 10.3724 7.2518C9.43398 7.32848 9.11071 7.45699 8.97055 7.5284C8.34962 7.84478 7.84478 8.34962 7.5284 8.97055C7.45698 9.11071 7.32848 9.43398 7.2518 10.3724C7.1716 11.3541 7.16872 12.6475 7.16872 14.6687V41.3313C7.16872 43.3525 7.1716 44.6459 7.2518 45.6276C7.32848 46.566 7.45698 46.8893 7.5284 47.0294C7.84478 47.6504 8.34962 48.1552 8.97055 48.4716C9.11071 48.543 9.43398 48.6715 10.3724 48.7482C11.3541 48.8284 12.6475 48.8313 14.6687 48.8313H41.3313C43.3525 48.8313 44.6459 48.8284 45.6276 48.7482C46.566 48.6715 46.8893 48.543 47.0294 48.4716C47.6504 48.1552 48.1552 47.6504 48.4716 47.0294C48.543 46.8893 48.6715 46.566 48.7482 45.6276C48.8284 44.6459 48.8313 43.3525 48.8313 41.3313V14.6687C48.8313 12.6475 48.8284 11.3541 48.7482 10.3724C48.6715 9.43398 48.543 9.11071 48.4716 8.97055C48.1552 8.34962 47.6504 7.84478 47.0294 7.5284C46.8893 7.45699 46.566 7.32848 45.6276 7.2518C44.6459 7.1716 43.3525 7.16872 41.3313 7.16872ZM4.23167 7.29079C3.46872 8.78817 3.46872 10.7484 3.46872 14.6687V41.3313C3.46872 45.2516 3.46872 47.2118 4.23167 48.7092C4.90279 50.0263 5.97365 51.0972 7.29079 51.7683C8.78817 52.5313 10.7484 52.5313 14.6687 52.5313H41.3313C45.2516 52.5313 47.2118 52.5313 48.7092 51.7683C50.0263 51.0972 51.0972 50.0263 51.7683 48.7092C52.5313 47.2118 52.5313 45.2516 52.5313 41.3313V14.6687C52.5313 10.7484 52.5313 8.78817 51.7683 7.29079C51.0972 5.97366 50.0263 4.90279 48.7092 4.23168C47.2118 3.46872 45.2516 3.46872 41.3313 3.46872H14.6687C10.7484 3.46872 8.78817 3.46872 7.29079 4.23168C5.97365 4.90279 4.90279 5.97366 4.23167 7.29079Z" />
<path d="M25.293 17.8613H34.1523C32.0332 14.2109 28.041 11.75 23.4609 11.75C16.6387 11.75 11.1016 17.2051 11.1016 23.9453C11.1016 28.8535 14.0273 33.0645 18.2383 34.9922V24.8887C18.2383 20.5547 20.9316 17.8613 25.293 17.8613ZM20.4531 38.6836C20.4531 41.7871 22.1621 43.4824 25.293 43.4824H39.0195C42.1504 43.4824 43.8457 41.7871 43.8457 38.6836V24.8887C43.8457 21.7852 42.1504 20.0898 39.0195 20.0898H25.293C22.1621 20.0898 20.4531 21.7852 20.4531 24.8887V38.6836Z" />
</svg>
