<svg width="56" height="56" viewBox="0 0 56 56" xmlns="http://www.w3.org/2000/svg">
<path fill-rule="evenodd" clip-rule="evenodd" d="M41.3313 6.46872H14.6687C12.659 6.46872 11.3322 6.47106 10.3154 6.55413C9.33369 6.63434 8.90804 6.77462 8.65276 6.9047C7.90011 7.28819 7.28819 7.90011 6.90469 8.65276C6.77462 8.90805 6.63434 9.33369 6.55413 10.3154C6.47105 11.3322 6.46872 12.659 6.46872 14.6687V41.3313C6.46872 43.341 6.47105 44.6678 6.55413 45.6846C6.63434 46.6663 6.77462 47.0919 6.90469 47.3472C7.28819 48.0999 7.90011 48.7118 8.65276 49.0953C8.90804 49.2254 9.33369 49.3657 10.3154 49.4459C11.3322 49.5289 12.659 49.5313 14.6687 49.5313H41.3313C43.341 49.5313 44.6678 49.5289 45.6846 49.4459C46.6663 49.3657 47.0919 49.2254 47.3472 49.0953C48.0999 48.7118 48.7118 48.0999 49.0953 47.3472C49.2254 47.092 49.3657 46.6663 49.4459 45.6846C49.5289 44.6678 49.5313 43.341 49.5313 41.3313V14.6687C49.5313 12.659 49.5289 11.3322 49.4459 10.3154C49.3657 9.33369 49.2254 8.90805 49.0953 8.65276C48.7118 7.90011 48.0999 7.28819 47.3472 6.9047C47.0919 6.77462 46.6663 6.63434 45.6846 6.55413C44.6678 6.47106 43.341 6.46872 41.3313 6.46872ZM4.23167 7.29079C3.46872 8.78817 3.46872 10.7484 3.46872 14.6687V41.3313C3.46872 45.2516 3.46872 47.2118 4.23167 48.7092C4.90279 50.0263 5.97365 51.0972 7.29079 51.7683C8.78817 52.5313 10.7484 52.5313 14.6687 52.5313H41.3313C45.2516 52.5313 47.2118 52.5313 48.7092 51.7683C50.0263 51.0972 51.0972 50.0263 51.7683 48.7092C52.5313 47.2118 52.5313 45.2516 52.5313 41.3313V14.6687C52.5313 10.7484 52.5313 8.78817 51.7683 7.29079C51.0972 5.97366 50.0263 4.90279 48.7092 4.23168C47.2118 3.46872 45.2516 3.46872 41.3313 3.46872H14.6687C10.7484 3.46872 8.78817 3.46872 7.29079 4.23168C5.97365 4.90279 4.90279 5.97366 4.23167 7.29079Z" />
<path d="M25.1836 18.0801H33.7559C31.7461 14.4434 27.8359 11.9824 23.3379 11.9824C16.748 11.9824 11.4023 17.2734 11.4023 23.8086C11.4023 28.6348 14.3008 32.7773 18.4707 34.623V24.7656C18.4707 20.5957 21 18.0801 25.1836 18.0801ZM20.5488 38.5742C20.5488 41.5684 22.1621 43.168 25.1836 43.168H38.9238C41.9453 43.168 43.5449 41.5684 43.5449 38.5742V24.7656C43.5449 21.7578 41.9453 20.1719 38.9238 20.1719H25.1836C22.1621 20.1719 20.5488 21.7578 20.5488 24.7656V38.5742Z" />
</svg>
