<svg width="56" height="56" viewBox="0 0 56 56" xmlns="http://www.w3.org/2000/svg">
<path fill-rule="evenodd" clip-rule="evenodd" d="M41.3313 6.46872H14.6687C12.659 6.46872 11.3322 6.47106 10.3154 6.55413C9.33369 6.63434 8.90804 6.77462 8.65276 6.9047C7.90011 7.28819 7.28819 7.90011 6.90469 8.65276C6.77462 8.90805 6.63434 9.33369 6.55413 10.3154C6.47105 11.3322 6.46872 12.659 6.46872 14.6687V41.3313C6.46872 43.341 6.47105 44.6678 6.55413 45.6846C6.63434 46.6663 6.77462 47.0919 6.90469 47.3472C7.28819 48.0999 7.90011 48.7118 8.65276 49.0953C8.90804 49.2254 9.33369 49.3657 10.3154 49.4459C11.3322 49.5289 12.659 49.5313 14.6687 49.5313H41.3313C43.341 49.5313 44.6678 49.5289 45.6846 49.4459C46.6663 49.3657 47.0919 49.2254 47.3472 49.0953C48.0999 48.7118 48.7118 48.0999 49.0953 47.3472C49.2254 47.092 49.3657 46.6663 49.4459 45.6846C49.5289 44.6678 49.5313 43.341 49.5313 41.3313V14.6687C49.5313 12.659 49.5289 11.3322 49.4459 10.3154C49.3657 9.33369 49.2254 8.90805 49.0953 8.65276C48.7118 7.90011 48.0999 7.28819 47.3472 6.9047C47.0919 6.77462 46.6663 6.63434 45.6846 6.55413C44.6678 6.47106 43.341 6.46872 41.3313 6.46872ZM4.23167 7.29079C3.46872 8.78817 3.46872 10.7484 3.46872 14.6687V41.3313C3.46872 45.2516 3.46872 47.2118 4.23167 48.7092C4.90279 50.0263 5.97365 51.0972 7.29079 51.7683C8.78817 52.5313 10.7484 52.5313 14.6687 52.5313H41.3313C45.2516 52.5313 47.2118 52.5313 48.7092 51.7683C50.0263 51.0972 51.0972 50.0263 51.7683 48.7092C52.5313 47.2118 52.5313 45.2516 52.5313 41.3313V14.6687C52.5313 10.7484 52.5313 8.78817 51.7683 7.29079C51.0972 5.97366 50.0263 4.90279 48.7092 4.23168C47.2118 3.46872 45.2516 3.46872 41.3313 3.46872H14.6687C10.7484 3.46872 8.78817 3.46872 7.29079 4.23168C5.97365 4.90279 4.90279 5.97366 4.23167 7.29079Z" />
<path d="M11.4023 23.8086C11.4023 29.332 15.2031 33.9531 20.3574 35.2793V38.5742C20.3574 41.5684 21.957 43.168 24.9785 43.168H38.9238C41.9453 43.168 43.5449 41.5684 43.5449 38.5742V24.5605C43.5449 21.5527 41.9453 19.9668 38.9238 19.9668H34.6445C33.0312 15.3047 28.5742 11.9824 23.3379 11.9824C16.748 11.9824 11.4023 17.2734 11.4023 23.8086ZM14.3008 23.8086C14.3008 18.8867 18.3477 14.8809 23.3379 14.8809C26.9336 14.8809 30.0508 16.959 31.5 19.9668H24.9785C21.957 19.9668 20.3574 21.5527 20.3574 24.5605V32.2441C16.8301 31.0273 14.3008 27.7051 14.3008 23.8086ZM25.2383 40.1191C24.0488 40.1191 23.3926 39.5176 23.3926 38.2598V24.875C23.3926 23.6172 24.0488 23.0156 25.2383 23.0156H38.6641C39.8535 23.0156 40.5098 23.6172 40.5098 24.875V38.2598C40.5098 39.5176 39.8535 40.1191 38.6641 40.1191H25.2383Z" />
</svg>
