<svg width="56" height="56" viewBox="0 0 56 56" xmlns="http://www.w3.org/2000/svg">
<path d="M13.7734 24.2147C13.7734 28.9491 17.0312 32.91 21.4492 34.0467V36.871C21.4492 39.4374 22.8203 40.8085 25.4101 40.8085H37.3633C39.9531 40.8085 41.3242 39.4374 41.3242 36.871V24.8592C41.3242 22.2811 39.9531 20.9217 37.3633 20.9217H33.6953C32.3125 16.9256 28.4922 14.078 24.0039 14.078C18.3555 14.078 13.7734 18.6131 13.7734 24.2147ZM16.2578 24.2147C16.2578 19.996 19.7265 16.5624 24.0039 16.5624C27.0859 16.5624 29.7578 18.3436 31 20.9217H25.4101C22.8203 20.9217 21.4492 22.2811 21.4492 24.8592V31.4452C18.4258 30.4022 16.2578 27.5545 16.2578 24.2147ZM25.6328 38.1952C24.6133 38.1952 24.0508 37.6795 24.0508 36.6014V25.1288C24.0508 24.0506 24.6133 23.535 25.6328 23.535H37.1406C38.1601 23.535 38.7226 24.0506 38.7226 25.1288V36.6014C38.7226 37.6795 38.1601 38.1952 37.1406 38.1952H25.6328Z" />
<path d="M48.7487 10.1185C48.7487 11.702 47.465 12.9857 45.8815 12.9857C44.298 12.9857 43.0143 11.702 43.0143 10.1185C43.0143 8.53498 44.298 7.25127 45.8815 7.25127C47.465 7.25127 48.7487 8.53498 48.7487 10.1185Z" />
<path d="M48.7487 45.8815C48.7487 47.4651 47.465 48.7488 45.8815 48.7488C44.2979 48.7488 43.0142 47.4651 43.0142 45.8815C43.0142 44.298 44.2979 43.0143 45.8815 43.0143C47.465 43.0143 48.7487 44.298 48.7487 45.8815Z" />
<path d="M12.9857 45.8815C12.9857 47.465 11.702 48.7487 10.1185 48.7487C8.53493 48.7487 7.25122 47.465 7.25122 45.8815C7.25122 44.298 8.53493 43.0143 10.1185 43.0143C11.702 43.0143 12.9857 44.298 12.9857 45.8815Z" />
<path d="M12.9857 10.1185C12.9857 11.702 11.702 12.9857 10.1185 12.9857C8.53494 12.9857 7.25124 11.702 7.25124 10.1185C7.25124 8.53495 8.53494 7.25124 10.1185 7.25124C11.702 7.25124 12.9857 8.53495 12.9857 10.1185Z" />
</svg>
