<svg width="56" height="56" viewBox="0 0 56 56" xmlns="http://www.w3.org/2000/svg">
<path d="M25.293 17.8613H34.1523C32.0332 14.2109 28.041 11.75 23.4609 11.75C16.6387 11.75 11.1016 17.2051 11.1016 23.9453C11.1016 28.8535 14.0273 33.0645 18.2383 34.9922V24.8887C18.2383 20.5547 20.9316 17.8613 25.293 17.8613ZM20.4531 38.6836C20.4531 41.7871 22.1621 43.4824 25.293 43.4824H39.0195C42.1504 43.4824 43.8457 41.7871 43.8457 38.6836V24.8887C43.8457 21.7852 42.1504 20.0898 39.0195 20.0898H25.293C22.1621 20.0898 20.4531 21.7852 20.4531 24.8887V38.6836Z" />
<path d="M10.0904 6.77952C10.0904 8.60803 8.60806 10.0903 6.77955 10.0903C4.95105 10.0903 3.46875 8.60803 3.46875 6.77952C3.46875 4.95102 4.95105 3.46872 6.77955 3.46872C8.60806 3.46872 10.0904 4.95102 10.0904 6.77952Z" />
<path d="M52.5313 6.77952C52.5313 8.60803 51.049 10.0903 49.2205 10.0903C47.392 10.0903 45.9097 8.60803 45.9097 6.77952C45.9097 4.95102 47.392 3.46872 49.2205 3.46872C51.049 3.46872 52.5313 4.95102 52.5313 6.77952Z" />
<path d="M52.5312 49.2205C52.5312 51.049 51.049 52.5313 49.2205 52.5313C47.392 52.5313 45.9097 51.049 45.9097 49.2205C45.9097 47.392 47.392 45.9097 49.2205 45.9097C51.049 45.9097 52.5312 47.392 52.5312 49.2205Z" />
<path d="M10.0904 49.2205C10.0904 51.049 8.60806 52.5313 6.77955 52.5313C4.95105 52.5313 3.46875 51.049 3.46875 49.2205C3.46875 47.392 4.95105 45.9097 6.77955 45.9097C8.60806 45.9097 10.0904 47.392 10.0904 49.2205Z" />
</svg>
