<svg width="67" height="70" viewBox="0 0 67 70" fill="none" xmlns="http://www.w3.org/2000/svg">
<path d="M9.81642 60.0552C13.8096 64.0024 19.1567 64.0483 23.0811 60.1011C26.7988 56.3374 27.2808 52.2065 33.7754 43.8301L43.8042 53.8359L44.1255 55.9014C44.2402 56.7275 44.7681 57.4619 45.4566 57.9209L52.6397 62.7861C53.374 63.2681 54.0855 63.2681 54.5903 62.7632L58.6982 58.6553C59.1802 58.1504 59.1113 57.416 58.6524 56.7046L53.856 49.5444C53.374 48.833 52.6397 48.3281 51.8135 48.2134L49.7481 47.8921L39.2603 37.4043C40.2012 36.3945 41.188 35.3389 42.2896 34.2373C47.2007 36.5552 53.1445 35.7749 57.0918 31.8506C61.2227 27.7197 61.9341 21.2021 58.8589 15.9238L56.6328 18.1729L52.6167 22.166C51.9971 22.7856 51.2168 22.8315 50.5513 22.166L47.7515 19.3433C47.0859 18.6548 47.0171 17.8516 47.6367 17.2319L51.6528 13.2617L53.9019 11.0127C48.6694 7.96045 42.1748 8.64893 38.044 12.8027C34.3721 16.4746 33.4312 21.8677 35.1983 26.5723L21.4517 12.7339C18.2158 9.521 14.7734 9.521 11.6294 12.665L8.57716 15.7173C5.43311 18.8613 5.43311 22.3037 8.646 25.5166L22.0942 38.9419C16.2422 42.8433 12.8687 43.6924 9.77052 46.7676C5.8003 50.6919 5.8462 56.062 9.81642 60.0552ZM45.3189 21.1792L48.7153 24.5527C50.4136 26.251 52.5938 26.2969 54.2002 24.6675L57.5967 21.248C58.0786 24.3462 57.1607 27.4673 54.9346 29.7163C51.0562 33.5947 44.6304 33.4111 40.5225 29.3491C36.4375 25.2642 36.2769 18.7925 40.1782 14.937C42.4043 12.7339 45.5254 11.793 48.5547 12.252L45.2041 15.6255C43.5059 17.3008 43.5518 19.458 45.3189 21.1792ZM10.7114 23.1299C9.03614 21.4546 9.05909 19.7104 10.7114 18.0352L13.9473 14.7764C15.5767 13.124 17.3667 13.147 19.042 14.7993L33.7066 29.4639C30.1724 32.7915 27.2119 35.2471 24.6416 37.1289L10.7114 23.1299ZM25.0547 27.5591C25.376 27.9033 25.9727 27.8574 26.271 27.5591C26.6152 27.1689 26.6152 26.6411 26.294 26.3198L17.7109 17.7598C17.3667 17.4155 16.8159 17.4385 16.5176 17.7598C16.1733 18.104 16.1963 18.6318 16.5176 18.9531L25.0547 27.5591ZM22.2319 30.3589C22.5762 30.7031 23.127 30.7031 23.4483 30.3589C23.7695 30.0376 23.7925 29.5098 23.4483 29.1655L14.8652 20.5825C14.5669 20.3071 13.9932 20.2612 13.6489 20.5825C13.3276 20.9497 13.3047 21.5005 13.6489 21.8218L22.2319 30.3589ZM38.3652 31.4834C38.8242 31.9194 39.2832 32.3555 39.7881 32.7227C23.9072 49.0166 26.271 52.2983 20.7402 57.8062C18.1929 60.3765 14.7505 60.3994 12.0884 57.7832C9.44923 55.0981 9.49513 51.6787 12.0195 49.1313C17.5733 43.6006 20.855 45.9644 37.1489 30.0835C37.5161 30.5654 37.9292 31.0244 38.3652 31.4834ZM47.4761 55.0752L47.0171 52.5049L35.8179 41.3057C36.231 40.8237 36.6441 40.3188 37.103 39.814L48.417 51.105L50.9873 51.541L55.3706 57.3701L53.2822 59.4585L47.4761 55.0752ZM16.3569 56.4062C17.9175 56.4062 19.2026 55.1211 19.2026 53.5605C19.2026 52 17.9175 50.7378 16.3569 50.7378C14.7964 50.7378 13.5342 52 13.5342 53.5605C13.5342 55.1211 14.7964 56.4062 16.3569 56.4062Z" fill="black"/>
</svg>
