<svg width="67" height="70" viewBox="0 0 67 70" fill="none" xmlns="http://www.w3.org/2000/svg">
<path d="M9.93214 60.0552C13.9253 64.0024 19.2725 64.0483 23.1968 60.1011C26.9146 56.3374 27.3965 52.2065 33.8911 43.8301L43.9199 53.8359L44.2412 55.9014C44.356 56.7275 44.8838 57.4619 45.5723 57.9209L52.7554 62.7861C53.4898 63.2681 54.2012 63.2681 54.7061 62.7632L58.814 58.6553C59.2959 58.1504 59.2271 57.416 58.7681 56.7046L53.9717 49.5444C53.4898 48.833 52.7554 48.3281 51.9292 48.2134L49.8638 47.8921L39.376 37.4043C40.3169 36.3945 41.3037 35.3389 42.4053 34.2373C47.3164 36.5552 53.2603 35.7749 57.2075 31.8506C61.3384 27.7197 62.0498 21.2021 58.9746 15.9238L56.7485 18.1729L52.7324 22.166C52.1128 22.7856 51.3325 22.8315 50.667 22.166L47.8672 19.3433C47.2017 18.6548 47.1328 17.8516 47.7524 17.2319L51.7686 13.2617L54.0176 11.0127C48.7852 7.96045 42.2905 8.64893 38.1597 12.8027C34.4878 16.4746 33.5469 21.8677 35.314 26.5723L21.5674 12.7339C18.3316 9.521 14.8892 9.521 11.7451 12.665L8.69288 15.7173C5.54884 18.8613 5.54884 22.3037 8.76173 25.5166L22.21 38.9419C16.3579 42.8433 12.9844 43.6924 9.88624 46.7676C5.91602 50.6919 5.96192 56.062 9.93214 60.0552ZM45.4346 21.1792L48.8311 24.5527C50.5293 26.251 52.7095 26.2969 54.3159 24.6675L57.7124 21.248C58.1943 24.3462 57.2764 27.4673 55.0503 29.7163C51.1719 33.5947 44.7461 33.4111 40.6382 29.3491C36.5532 25.2642 36.3926 18.7925 40.294 14.937C42.52 12.7339 45.6411 11.793 48.6704 12.252L45.3198 15.6255C43.6216 17.3008 43.6675 19.458 45.4346 21.1792ZM10.8272 23.1299C9.15186 21.4546 9.17481 19.7104 10.8272 18.0352L14.063 14.7764C15.6924 13.124 17.4824 13.147 19.1577 14.7993L33.8223 29.4639C30.2881 32.7915 27.3276 35.2471 24.7573 37.1289L10.8272 23.1299ZM25.1704 27.5591C25.4917 27.9033 26.0884 27.8574 26.3867 27.5591C26.731 27.1689 26.731 26.6411 26.4097 26.3198L17.8267 17.7598C17.4824 17.4155 16.9316 17.4385 16.6333 17.7598C16.2891 18.104 16.312 18.6318 16.6333 18.9531L25.1704 27.5591ZM22.3477 30.3589C22.6919 30.7031 23.2427 30.7031 23.564 30.3589C23.8853 30.0376 23.9082 29.5098 23.564 29.1655L14.981 20.5825C14.6826 20.3071 14.1089 20.2612 13.7647 20.5825C13.4434 20.9497 13.4204 21.5005 13.7647 21.8218L22.3477 30.3589ZM38.481 31.4834C38.9399 31.9194 39.3989 32.3555 39.9038 32.7227C24.023 49.0166 26.3867 52.2983 20.856 57.8062C18.3086 60.3765 14.8662 60.3994 12.2041 57.7832C9.56495 55.0981 9.61085 51.6787 12.1353 49.1313C17.689 43.6006 20.9707 45.9644 37.2647 30.0835C37.6318 30.5654 38.0449 31.0244 38.481 31.4834ZM47.5918 55.0752L47.1328 52.5049L35.9336 41.3057C36.3467 40.8237 36.7598 40.3188 37.2188 39.814L48.5327 51.105L51.103 51.541L55.4863 57.3701L53.398 59.4585L47.5918 55.0752ZM16.4727 56.4062C18.0332 56.4062 19.3184 55.1211 19.3184 53.5605C19.3184 52 18.0332 50.7378 16.4727 50.7378C14.9121 50.7378 13.6499 52 13.6499 53.5605C13.6499 55.1211 14.9121 56.4062 16.4727 56.4062Z" fill="black"/>
</svg>
