<svg width="76" height="56" viewBox="0 0 76 56" fill="none" xmlns="http://www.w3.org/2000/svg">
<path d="M11.6582 37.771H18.2446C18.4512 37.771 18.6348 37.8398 18.7954 37.9775L29.1455 47.249C30.2471 48.2358 31.0962 48.6948 32.1978 48.6948C33.6665 48.6948 34.791 47.6162 34.791 46.1245V10.9204C34.791 9.42871 33.6665 8.2124 32.1519 8.2124C31.0503 8.2124 30.3389 8.71729 29.1455 9.7959L18.7954 18.9756C18.6348 19.1133 18.4512 19.1821 18.2446 19.1821H11.6582C8.53711 19.1821 6.99951 20.7656 6.99951 24.0933V32.8828C6.99951 36.2104 8.56006 37.771 11.6582 37.771ZM61.1138 22.9917H55.6748V22.854L61.2744 15.4873C61.7793 14.8447 61.9629 14.4546 61.9629 14.0186C61.9629 13.2612 61.3662 12.8022 60.5859 12.8022H52.875C52.1177 12.8022 51.5898 13.2842 51.5898 14.0415C51.5898 14.8218 52.1177 15.3037 52.875 15.3037H58.0156V15.3955L52.3472 22.7622C51.8423 23.4048 51.6816 23.7949 51.6816 24.2998C51.6816 24.9883 52.2324 25.4932 53.0356 25.4932H61.1138C61.8711 25.4932 62.3989 25.0112 62.3989 24.231C62.3989 23.4966 61.8711 22.9917 61.1138 22.9917ZM11.8188 34.4204C10.9697 34.4204 10.5796 34.0303 10.5796 33.1812V23.7949C10.5796 22.9229 10.9697 22.5327 11.8188 22.5327H19.1626C19.7593 22.5327 20.2183 22.418 20.7461 21.936L30.5225 13.0547C30.6372 12.9399 30.752 12.8711 30.9126 12.8711C31.0732 12.8711 31.2109 12.9858 31.2109 13.1924V43.6919C31.2109 43.8984 31.0732 44.0361 30.9126 44.0361C30.7979 44.0361 30.6602 43.9673 30.5225 43.8525L20.7461 35.0171C20.2183 34.5581 19.7593 34.4204 19.1626 34.4204H11.8188ZM47.6196 32.1714H43.7871V32.0796L47.7573 26.8931C48.2163 26.2964 48.4229 25.9062 48.4229 25.4702C48.4229 24.7588 47.8491 24.3457 47.0918 24.3457H41.2397C40.5283 24.3457 40.0464 24.8047 40.0464 25.4932C40.0464 26.2734 40.5283 26.7095 41.2397 26.7095H44.6821V26.8013L40.7349 31.9648C40.2988 32.5615 40.1152 32.9287 40.1152 33.4106C40.1152 34.0762 40.6201 34.5581 41.3545 34.5581H47.6196C48.3311 34.5581 48.813 34.1221 48.813 33.3647C48.813 32.6533 48.3311 32.1714 47.6196 32.1714ZM57.9927 40.6167H54.7339V40.5249L58.0845 36.0498C58.5435 35.4302 58.7041 35.1089 58.7041 34.6958C58.7041 34.0073 58.1763 33.5942 57.4878 33.5942H52.3242C51.6357 33.5942 51.1768 34.0303 51.1768 34.7188C51.1768 35.4302 51.6357 35.8433 52.3242 35.8433H55.1699V35.9351L51.8423 40.4102C51.4292 40.9839 51.2227 41.3281 51.2227 41.7642C51.2227 42.4067 51.7505 42.8657 52.439 42.8657H57.9927C58.6353 42.8657 59.0942 42.4297 59.0942 41.7183C59.0942 41.0527 58.6353 40.6167 57.9927 40.6167Z" fill="black"/>
</svg>
