<svg width="76" height="56" viewBox="0 0 76 56" fill="none" xmlns="http://www.w3.org/2000/svg">
<path d="M59.645 50.2783C60.4253 50.8521 61.5498 50.6226 62.1694 49.7046C66.1855 43.8984 68.5952 36.5317 68.5952 28.4307C68.5952 20.3066 66.1167 12.9858 62.1694 7.15674C61.5498 6.21582 60.4253 6.00928 59.645 6.58301C58.7729 7.17969 58.6582 8.2583 59.2778 9.19922C62.835 14.4546 65.084 21.064 65.084 28.4307C65.084 35.7744 62.835 42.4297 59.2778 47.6621C58.6582 48.603 58.7729 49.6816 59.645 50.2783ZM31.7388 48.6948C33.2534 48.6948 34.332 47.6162 34.332 46.1245V10.9204C34.332 9.42871 33.2534 8.21241 31.6929 8.21241C30.6143 8.21241 29.8799 8.67139 28.7324 9.7959L18.9331 18.9756C18.7954 19.1133 18.5889 19.1821 18.3594 19.1821H11.7959C8.6748 19.1821 6.99951 20.9033 6.99951 24.208V32.7451C6.99951 36.0728 8.6748 37.771 11.7959 37.771H18.3594C18.5889 37.771 18.7954 37.8398 18.9331 37.9775L28.7324 47.249C29.7651 48.2588 30.6602 48.6948 31.7388 48.6948ZM51.0391 44.1968C51.8882 44.7705 52.9438 44.564 53.5635 43.6919C56.501 39.6528 58.2222 34.0991 58.2222 28.4307C58.2222 22.7622 56.5239 17.1626 53.5635 13.1694C52.9438 12.2974 51.8882 12.0908 51.0391 12.6646C50.1899 13.2383 50.0522 14.3169 50.7178 15.2578C53.2192 18.792 54.665 23.5425 54.665 28.4307C54.665 33.3189 53.1733 38.0234 50.7178 41.6035C50.0752 42.5444 50.1899 43.6231 51.0391 44.1968ZM42.5249 38.207C43.2822 38.7349 44.3608 38.5742 44.9805 37.6792C46.7476 35.3613 47.8032 31.9419 47.8032 28.4307C47.8032 24.9194 46.7476 21.523 44.9805 19.1821C44.3608 18.2871 43.2822 18.1035 42.5249 18.6543C41.584 19.2969 41.4463 20.4443 42.1577 21.3853C43.4888 23.2212 44.2461 25.7686 44.2461 28.4307C44.2461 31.0928 43.4658 33.6172 42.1577 35.4761C41.4692 36.4399 41.584 37.5415 42.5249 38.207Z" fill="black"/>
</svg>
