<svg width="76" height="56" viewBox="0 0 76 56" fill="none" xmlns="http://www.w3.org/2000/svg">
<path d="M11.6582 37.771H18.2446C18.4512 37.771 18.6348 37.8398 18.7954 37.9775L29.1455 47.249C30.2241 48.2358 31.0962 48.6948 32.1748 48.6948C33.6665 48.6948 34.7681 47.6162 34.7681 46.1245V10.9204C34.7681 9.42871 33.6665 8.2124 32.1289 8.2124C31.0503 8.2124 30.3389 8.71729 29.1455 9.7959L18.7954 18.9756C18.6348 19.1133 18.4512 19.1821 18.2446 19.1821H11.6582C8.53711 19.1821 6.99951 20.7656 6.99951 24.0933V32.8828C6.99951 36.2104 8.56006 37.771 11.6582 37.771ZM11.8188 34.4204C10.9697 34.4204 10.5796 34.0303 10.5796 33.1812V23.7949C10.5796 22.9229 10.9697 22.5327 11.8188 22.5327H19.1626C19.7593 22.5327 20.2183 22.418 20.7461 21.936L30.5225 13.0547C30.6372 12.9399 30.752 12.8711 30.9126 12.8711C31.0732 12.8711 31.2109 12.9858 31.2109 13.1924V43.6919C31.2109 43.8984 31.0732 44.0361 30.9126 44.0361C30.7979 44.0361 30.6602 43.9673 30.5225 43.8525L20.7461 35.0171C20.2183 34.5581 19.7593 34.4204 19.1626 34.4204H11.8188ZM42.5249 38.23C43.2822 38.7578 44.3608 38.5972 44.9805 37.7021C46.7476 35.3843 47.8032 31.9648 47.8032 28.4536C47.8032 24.9424 46.7476 21.5459 44.9805 19.2051C44.3608 18.3101 43.2822 18.1265 42.5249 18.6772C41.584 19.3198 41.4463 20.4673 42.1577 21.4082C43.4888 23.2441 44.2461 25.7915 44.2461 28.4536C44.2461 31.1157 43.4658 33.6401 42.1577 35.499C41.4692 36.4629 41.584 37.5645 42.5249 38.23Z" fill="black"/>
</svg>
