<svg width="76" height="56" viewBox="0 0 76 56" fill="none" xmlns="http://www.w3.org/2000/svg">
<path d="M31.7388 48.6948C33.2534 48.6948 34.332 47.6162 34.332 46.1245V10.9204C34.332 9.42871 33.2534 8.2124 31.6929 8.2124C30.6143 8.2124 29.9028 8.69434 28.7324 9.7959L18.9331 18.9756C18.7954 19.1133 18.5889 19.1821 18.3594 19.1821H11.7959C8.6748 19.1821 6.99951 20.9033 6.99951 24.208V32.7451C6.99951 36.0728 8.6748 37.771 11.7959 37.771H18.3594C18.5889 37.771 18.7954 37.8398 18.9331 37.9775L28.7324 47.249C29.7651 48.2588 30.6602 48.6948 31.7388 48.6948ZM51.0391 44.1968C51.8882 44.7705 52.9438 44.564 53.5635 43.6919C56.501 39.6528 58.2222 34.0991 58.2222 28.4307C58.2222 22.7622 56.5239 17.1626 53.5635 13.1694C52.9438 12.2974 51.8882 12.0908 51.0391 12.6646C50.1899 13.2383 50.0522 14.3169 50.7178 15.2578C53.2192 18.792 54.665 23.5425 54.665 28.4307C54.665 33.3188 53.1733 38.0234 50.7178 41.6035C50.0752 42.5444 50.1899 43.623 51.0391 44.1968ZM42.5479 38.207C43.3052 38.7349 44.3838 38.5742 45.0034 37.6792C46.7705 35.3613 47.8262 31.9419 47.8262 28.4307C47.8262 24.9194 46.7705 21.5229 45.0034 19.1821C44.3838 18.2871 43.3052 18.1035 42.5479 18.6543C41.6069 19.2969 41.4692 20.4443 42.1807 21.3853C43.5117 23.2212 44.269 25.7686 44.269 28.4307C44.269 31.0928 43.4888 33.6172 42.1807 35.4761C41.4922 36.4399 41.6069 37.5415 42.5479 38.207Z" fill="black"/>
</svg>
