<svg width="76" height="56" viewBox="0 0 76 56" fill="none" xmlns="http://www.w3.org/2000/svg">
<path d="M59.645 50.2783C60.4253 50.8521 61.5498 50.6226 62.1694 49.7046C66.1855 43.8984 68.5952 36.5317 68.5952 28.4307C68.5952 20.3066 66.1167 12.9858 62.1694 7.15674C61.5498 6.21582 60.4253 6.00928 59.645 6.58301C58.7729 7.17969 58.6582 8.2583 59.2778 9.19922C62.835 14.4546 65.084 21.064 65.084 28.4307C65.084 35.7744 62.835 42.4297 59.2778 47.6621C58.6582 48.603 58.7729 49.6816 59.645 50.2783ZM11.6582 37.771H18.2446C18.4512 37.771 18.6348 37.8398 18.7954 37.9775L29.1455 47.249C30.2471 48.2358 31.0962 48.6948 32.1978 48.6948C33.6665 48.6948 34.791 47.6162 34.791 46.1245V10.9204C34.791 9.42871 33.6665 8.21241 32.1519 8.21241C31.0503 8.21241 30.3389 8.71729 29.1455 9.7959L18.7954 18.9756C18.6348 19.1133 18.4512 19.1821 18.2446 19.1821H11.6582C8.53711 19.1821 6.99951 20.7656 6.99951 24.0933V32.8828C6.99951 36.2105 8.56006 37.771 11.6582 37.771ZM51.0391 44.1968C51.8882 44.7705 52.9438 44.564 53.5635 43.6919C56.501 39.6528 58.2222 34.0991 58.2222 28.4307C58.2222 22.7622 56.5239 17.1626 53.5635 13.1694C52.9438 12.2974 51.8882 12.0908 51.0391 12.6646C50.1899 13.2383 50.0522 14.3169 50.7178 15.2578C53.2192 18.792 54.665 23.5425 54.665 28.4307C54.665 33.3189 53.1733 38.0234 50.7178 41.6035C50.0752 42.5444 50.1899 43.6231 51.0391 44.1968ZM11.8188 34.4204C10.9697 34.4204 10.5796 34.0303 10.5796 33.1812V23.7949C10.5796 22.9229 10.9697 22.5327 11.8188 22.5327H19.1626C19.7593 22.5327 20.2183 22.418 20.7461 21.936L30.5225 13.0547C30.6372 12.9399 30.752 12.8711 30.9126 12.8711C31.0732 12.8711 31.2109 12.9858 31.2109 13.1924V43.6919C31.2109 43.8984 31.0732 44.0361 30.9126 44.0361C30.7979 44.0361 30.6602 43.9673 30.5225 43.8525L20.7461 35.0171C20.2183 34.5581 19.7593 34.4204 19.1626 34.4204H11.8188ZM42.5479 38.207C43.3052 38.7349 44.3838 38.5742 45.0034 37.6792C46.7705 35.3613 47.8262 31.9419 47.8262 28.4307C47.8262 24.9194 46.7705 21.523 45.0034 19.1821C44.3838 18.2871 43.3052 18.1035 42.5479 18.6543C41.6069 19.2969 41.4692 20.4443 42.1807 21.3853C43.5117 23.2212 44.269 25.7686 44.269 28.4307C44.269 31.0928 43.4888 33.6172 42.1807 35.4761C41.4922 36.4399 41.6069 37.5415 42.5479 38.207Z" fill="black"/>
</svg>
