<svg width="76" height="56" viewBox="0 0 76 56" fill="none" xmlns="http://www.w3.org/2000/svg">
<path d="M11.6812 37.771H18.2446C18.4512 37.771 18.6348 37.8398 18.7954 37.9775L29.1455 47.249C30.2471 48.2358 31.0962 48.6948 32.1978 48.6948C33.6895 48.6948 34.791 47.6162 34.791 46.1245V10.9204C34.791 9.42871 33.6895 8.2124 32.1519 8.2124C31.0503 8.2124 30.3618 8.71729 29.1455 9.7959L18.7954 18.9756C18.6348 19.1133 18.4512 19.1821 18.2446 19.1821H11.6812C8.56006 19.1821 6.99951 20.7656 6.99951 24.0933V32.8828C6.99951 36.2104 8.56006 37.771 11.6812 37.771ZM11.8418 34.4204C10.9697 34.4204 10.5796 34.0303 10.5796 33.1812V23.7949C10.5796 22.9229 10.9697 22.5327 11.8418 22.5327H19.1855C19.7822 22.5327 20.2183 22.418 20.7461 21.936L30.5225 13.0547C30.6372 12.9399 30.7749 12.8711 30.9126 12.8711C31.0732 12.8711 31.2109 12.9858 31.2109 13.1924V43.6919C31.2109 43.8984 31.0732 44.0361 30.9126 44.0361C30.7979 44.0361 30.6602 43.9673 30.5454 43.8525L20.7461 35.0171C20.2183 34.5581 19.7822 34.4204 19.1855 34.4204H11.8418Z" fill="black"/>
</svg>
