<svg width="76" height="56" viewBox="0 0 76 56" fill="none" xmlns="http://www.w3.org/2000/svg">
<path d="M34.791 34.3975V10.9204C34.791 9.42871 33.6895 8.2124 32.1519 8.2124C31.0503 8.2124 30.3618 8.71729 29.1455 9.7959L19.1167 18.7002L21.5723 21.1787L30.5225 13.0547C30.6372 12.9399 30.7749 12.8711 30.9126 12.8711C31.0732 12.8711 31.2109 12.9858 31.2109 13.1924V30.8174L34.791 34.3975ZM42.2495 51.1045C42.938 51.793 44.0854 51.793 44.751 51.1045C45.4395 50.3931 45.4395 49.2915 44.751 48.603L5.46191 9.31396C4.77344 8.62549 3.62598 8.62549 2.9375 9.31396C2.24902 9.97949 2.24902 11.1499 2.9375 11.8154L42.2495 51.1045ZM11.6812 37.771H18.2446C18.4512 37.771 18.6348 37.8398 18.7954 37.9775L29.1455 47.249C30.27 48.2358 31.0962 48.6948 32.1978 48.6948C33.0928 48.6948 33.8271 48.2817 34.355 47.5015L31.6929 44.8623L20.6084 34.9253C20.1494 34.5122 19.874 34.4204 19.2773 34.4204H11.8418C10.9697 34.4204 10.5796 34.0303 10.5796 33.1812V23.7261L7.82568 20.9722C7.29785 21.7065 6.99951 22.7393 6.99951 24.0933V32.8828C6.99951 36.2104 8.56006 37.771 11.6812 37.771Z" fill="black"/>
</svg>
