<svg width="56" height="56" viewBox="0 0 56 56" xmlns="http://www.w3.org/2000/svg">
<path fill-rule="evenodd" clip-rule="evenodd" d="M41.3313 7.16872H14.6687C12.6475 7.16872 11.3541 7.1716 10.3724 7.2518C9.43398 7.32848 9.11071 7.45699 8.97055 7.5284C8.34962 7.84478 7.84478 8.34962 7.5284 8.97055C7.45698 9.11071 7.32848 9.43398 7.2518 10.3724C7.1716 11.3541 7.16872 12.6475 7.16872 14.6687V41.3313C7.16872 43.3525 7.1716 44.6459 7.2518 45.6276C7.32848 46.566 7.45698 46.8893 7.5284 47.0294C7.84478 47.6504 8.34962 48.1552 8.97055 48.4716C9.11071 48.543 9.43398 48.6715 10.3724 48.7482C11.3541 48.8284 12.6475 48.8313 14.6687 48.8313H41.3313C43.3525 48.8313 44.6459 48.8284 45.6276 48.7482C46.566 48.6715 46.8893 48.543 47.0294 48.4716C47.6504 48.1552 48.1552 47.6504 48.4716 47.0294C48.543 46.8893 48.6715 46.566 48.7482 45.6276C48.8284 44.6459 48.8313 43.3525 48.8313 41.3313V14.6687C48.8313 12.6475 48.8284 11.3541 48.7482 10.3724C48.6715 9.43398 48.543 9.11071 48.4716 8.97055C48.1552 8.34962 47.6504 7.84478 47.0294 7.5284C46.8893 7.45699 46.566 7.32848 45.6276 7.2518C44.6459 7.1716 43.3525 7.16872 41.3313 7.16872ZM4.23167 7.29079C3.46872 8.78817 3.46872 10.7484 3.46872 14.6687V41.3313C3.46872 45.2516 3.46872 47.2118 4.23167 48.7092C4.90279 50.0263 5.97365 51.0972 7.29079 51.7683C8.78817 52.5313 10.7484 52.5313 14.6687 52.5313H41.3313C45.2516 52.5313 47.2118 52.5313 48.7092 51.7683C50.0263 51.0972 51.0972 50.0263 51.7683 48.7092C52.5313 47.2118 52.5313 45.2516 52.5313 41.3313V14.6687C52.5313 10.7484 52.5313 8.78817 51.7683 7.29079C51.0972 5.97366 50.0263 4.90279 48.7092 4.23168C47.2118 3.46872 45.2516 3.46872 41.3313 3.46872H14.6687C10.7484 3.46872 8.78817 3.46872 7.29079 4.23168C5.97365 4.90279 4.90279 5.97366 4.23167 7.29079Z" />
<path d="M11.1016 23.9453C11.1016 29.5508 14.9297 34.2676 20.1387 35.7031V38.6836C20.1387 41.7871 21.8477 43.4824 24.9648 43.4824H39.0195C42.1367 43.4824 43.8457 41.7871 43.8457 38.6836V24.5605C43.8457 21.457 42.1367 19.7617 39.0195 19.7617H35.082C33.3457 15.0859 28.793 11.75 23.4609 11.75C16.6387 11.75 11.1016 17.2051 11.1016 23.9453ZM14.4785 23.9453C14.4785 19.0918 18.4844 15.1406 23.4609 15.1406C26.8789 15.1406 29.8594 17.0137 31.3769 19.7617H24.9648C21.8477 19.7617 20.1387 21.457 20.1387 24.5605V32.1348C16.8164 30.8359 14.4785 27.6641 14.4785 23.9453ZM25.3477 39.9551C24.2539 39.9551 23.666 39.4082 23.666 38.2461V24.998C23.666 23.8359 24.2539 23.2891 25.3477 23.2891H38.6367C39.7441 23.2891 40.3184 23.8359 40.3184 24.998V38.2461C40.3184 39.4082 39.7441 39.9551 38.6367 39.9551H25.3477Z" />
</svg>
