<svg width="60" height="70" viewBox="0 0 60 70" fill="none" xmlns="http://www.w3.org/2000/svg">
<path fill-rule="evenodd" clip-rule="evenodd" d="M43.3313 14.1687H16.6687C14.6475 14.1687 13.3541 14.1716 12.3725 14.2518C11.434 14.3285 11.1107 14.457 10.9706 14.5284C10.3496 14.8448 9.84481 15.3496 9.52843 15.9706C9.45701 16.1107 9.32851 16.434 9.25183 17.3724C9.17163 18.3541 9.16875 19.6475 9.16875 21.6687V48.3313C9.16875 50.3525 9.17163 51.6459 9.25183 52.6276C9.32851 53.566 9.45701 53.8893 9.52843 54.0294C9.84481 54.6504 10.3496 55.1552 10.9706 55.4716C11.1107 55.543 11.434 55.6715 12.3725 55.7482C13.3541 55.8284 14.6475 55.8313 16.6688 55.8313H43.3313C45.3525 55.8313 46.6459 55.8284 47.6276 55.7482C48.566 55.6715 48.8893 55.543 49.0295 55.4716C49.6504 55.1552 50.1552 54.6504 50.4716 54.0294C50.543 53.8893 50.6715 53.566 50.7482 52.6276C50.8284 51.6459 50.8313 50.3525 50.8313 48.3313V21.6687C50.8313 19.6475 50.8284 18.3541 50.7482 17.3724C50.6715 16.434 50.543 16.1107 50.4716 15.9706C50.1552 15.3496 49.6504 14.8448 49.0295 14.5284C48.8893 14.457 48.566 14.3285 47.6276 14.2518C46.6459 14.1716 45.3525 14.1687 43.3313 14.1687ZM6.2317 14.2908C5.46875 15.7882 5.46875 17.7484 5.46875 21.6687V48.3313C5.46875 52.2516 5.46875 54.2118 6.2317 55.7092C6.90282 57.0263 7.97368 58.0972 9.29082 58.7683C10.7882 59.5313 12.7484 59.5313 16.6688 59.5313H43.3313C47.2517 59.5313 49.2119 59.5313 50.7092 58.7683C52.0264 58.0972 53.0972 57.0263 53.7683 55.7092C54.5313 54.2118 54.5313 52.2516 54.5313 48.3313V21.6687C54.5313 17.7484 54.5313 15.7882 53.7683 14.2908C53.0972 12.9737 52.0264 11.9028 50.7092 11.2317C49.2119 10.4687 47.2517 10.4687 43.3313 10.4687H16.6687C12.7484 10.4687 10.7882 10.4687 9.29082 11.2317C7.97368 11.9028 6.90282 12.9737 6.2317 14.2908Z" fill="black"/>
<path d="M27.293 24.8613H36.1523C34.0332 21.2109 30.041 18.75 25.4609 18.75C18.6387 18.75 13.1016 24.2051 13.1016 30.9453C13.1016 35.8535 16.0273 40.0645 20.2383 41.9922V31.8887C20.2383 27.5547 22.9316 24.8613 27.293 24.8613ZM22.4531 45.6836C22.4531 48.7871 24.1621 50.4824 27.293 50.4824H41.0195C44.1504 50.4824 45.8457 48.7871 45.8457 45.6836V31.8887C45.8457 28.7852 44.1504 27.0898 41.0195 27.0898H27.293C24.1621 27.0898 22.4531 28.7852 22.4531 31.8887V45.6836Z" fill="black"/>
</svg>
