<svg width="56" height="56" viewBox="0 0 56 56" xmlns="http://www.w3.org/2000/svg">
<path fill-rule="evenodd" clip-rule="evenodd" d="M38.3971 9.4029H17.6029C15.5932 9.4029 14.2664 9.40523 13.2496 9.48831C12.2679 9.56852 11.8422 9.7088 11.5869 9.83887C10.8343 10.2224 10.2224 10.8343 9.83887 11.5869C9.70879 11.8422 9.56851 12.2679 9.4883 13.2496C9.40523 14.2664 9.40289 15.5932 9.40289 17.6029V38.3971C9.40289 40.4068 9.40523 41.7336 9.4883 42.7504C9.56851 43.7321 9.70879 44.1578 9.83887 44.4131C10.2224 45.1657 10.8343 45.7776 11.5869 46.1611C11.8422 46.2912 12.2679 46.4315 13.2496 46.5117C14.2664 46.5948 15.5932 46.5971 17.6029 46.5971H38.3971C40.4068 46.5971 41.7336 46.5948 42.7504 46.5117C43.7321 46.4315 44.1578 46.2912 44.4131 46.1611C45.1657 45.7776 45.7776 45.1657 46.1611 44.4131C46.2912 44.1578 46.4315 43.7321 46.5117 42.7504C46.5948 41.7336 46.5971 40.4068 46.5971 38.3971V17.6029C46.5971 15.5932 46.5948 14.2664 46.5117 13.2496C46.4315 12.2679 46.2912 11.8422 46.1611 11.5869C45.7776 10.8343 45.1657 10.2224 44.4131 9.83887C44.1578 9.7088 43.7321 9.56852 42.7504 9.48831C41.7336 9.40523 40.4068 9.4029 38.3971 9.4029ZM7.16585 10.225C6.40289 11.7223 6.40289 13.6825 6.40289 17.6029V38.3971C6.40289 42.3175 6.40289 44.2777 7.16585 45.775C7.83696 47.0922 8.90782 48.163 10.225 48.8341C11.7223 49.5971 13.6825 49.5971 17.6029 49.5971H38.3971C42.3175 49.5971 44.2776 49.5971 45.775 48.8341C47.0922 48.163 48.163 47.0922 48.8341 45.775C49.5971 44.2777 49.5971 42.3175 49.5971 38.3971V17.6029C49.5971 13.6825 49.5971 11.7223 48.8341 10.225C48.163 8.90783 47.0922 7.83697 45.775 7.16586C44.2776 6.4029 42.3175 6.4029 38.3971 6.4029H17.6029C13.6825 6.4029 11.7223 6.4029 10.225 7.16586C8.90782 7.83697 7.83696 8.90783 7.16585 10.225Z" />
<path d="M25.5859 19.3046H32.9336C31.2109 16.1874 27.8594 14.078 24.0039 14.078C18.3555 14.078 13.7734 18.6131 13.7734 24.2147C13.7734 28.3514 16.2578 31.9022 19.832 33.4842V25.035C19.832 21.4608 22 19.3046 25.5859 19.3046ZM21.6133 36.871C21.6133 39.4374 22.9961 40.8085 25.5859 40.8085H37.3633C39.9531 40.8085 41.3242 39.4374 41.3242 36.871V25.035C41.3242 22.4569 39.9531 21.0975 37.3633 21.0975H25.5859C22.9961 21.0975 21.6133 22.4569 21.6133 25.035V36.871Z" />
</svg>
