<svg width="56" height="56" viewBox="0 0 56 56" xmlns="http://www.w3.org/2000/svg">
<path d="M25.5859 19.3046H32.9336C31.2109 16.1874 27.8594 14.078 24.0039 14.078C18.3555 14.078 13.7734 18.6131 13.7734 24.2147C13.7734 28.3514 16.2578 31.9022 19.832 33.4842V25.035C19.832 21.4608 22 19.3046 25.5859 19.3046ZM21.6133 36.871C21.6133 39.4374 22.9961 40.8085 25.5859 40.8085H37.3633C39.9531 40.8085 41.3242 39.4374 41.3242 36.871V25.035C41.3242 22.4569 39.9531 21.0975 37.3633 21.0975H25.5859C22.9961 21.0975 21.6133 22.4569 21.6133 25.035V36.871Z" />
<path d="M48.7487 10.1185C48.7487 11.702 47.465 12.9857 45.8815 12.9857C44.298 12.9857 43.0143 11.702 43.0143 10.1185C43.0143 8.53498 44.298 7.25127 45.8815 7.25127C47.465 7.25127 48.7487 8.53498 48.7487 10.1185Z" />
<path d="M48.7487 45.8815C48.7487 47.4651 47.465 48.7488 45.8815 48.7488C44.2979 48.7488 43.0142 47.4651 43.0142 45.8815C43.0142 44.298 44.2979 43.0143 45.8815 43.0143C47.465 43.0143 48.7487 44.298 48.7487 45.8815Z" />
<path d="M12.9857 45.8815C12.9857 47.465 11.702 48.7487 10.1185 48.7487C8.53493 48.7487 7.25122 47.465 7.25122 45.8815C7.25122 44.298 8.53493 43.0143 10.1185 43.0143C11.702 43.0143 12.9857 44.298 12.9857 45.8815Z" />
<path d="M12.9857 10.1185C12.9857 11.702 11.702 12.9857 10.1185 12.9857C8.53494 12.9857 7.25124 11.702 7.25124 10.1185C7.25124 8.53495 8.53494 7.25124 10.1185 7.25124C11.702 7.25124 12.9857 8.53495 12.9857 10.1185Z" />
</svg>
