<svg width="56" height="56" viewBox="0 0 56 56" xmlns="http://www.w3.org/2000/svg">
<path d="M25.1836 18.0801H33.7559C31.7461 14.4434 27.8359 11.9824 23.3379 11.9824C16.748 11.9824 11.4023 17.2734 11.4023 23.8086C11.4023 28.6348 14.3008 32.7773 18.4707 34.623V24.7656C18.4707 20.5957 21 18.0801 25.1836 18.0801ZM20.5488 38.5742C20.5488 41.5684 22.1621 43.168 25.1836 43.168H38.9238C41.9453 43.168 43.5449 41.5684 43.5449 38.5742V24.7656C43.5449 21.7578 41.9453 20.1719 38.9238 20.1719H25.1836C22.1621 20.1719 20.5488 21.7578 20.5488 24.7656V38.5742Z" />
<path d="M9.46872 6.46872C9.46872 8.12558 8.12557 9.46872 6.46872 9.46872C4.81187 9.46872 3.46872 8.12558 3.46872 6.46872C3.46872 4.81187 4.81187 3.46872 6.46872 3.46872C8.12557 3.46872 9.46872 4.81187 9.46872 6.46872Z" />
<path d="M52.5313 6.46872C52.5313 8.12558 51.1881 9.46872 49.5313 9.46872C47.8744 9.46872 46.5313 8.12558 46.5313 6.46872C46.5313 4.81187 47.8744 3.46872 49.5313 3.46872C51.1881 3.46872 52.5313 4.81187 52.5313 6.46872Z" />
<path d="M52.5313 49.5313C52.5313 51.1881 51.1881 52.5313 49.5313 52.5313C47.8744 52.5313 46.5313 51.1881 46.5313 49.5313C46.5313 47.8744 47.8744 46.5313 49.5313 46.5313C51.1881 46.5313 52.5313 47.8744 52.5313 49.5313Z" />
<path d="M9.46872 49.5313C9.46872 51.1881 8.12557 52.5313 6.46872 52.5313C4.81187 52.5313 3.46872 51.1881 3.46872 49.5313C3.46872 47.8744 4.81187 46.5313 6.46872 46.5313C8.12557 46.5313 9.46872 47.8744 9.46872 49.5313Z" />
</svg>
