<svg width="60" height="70" viewBox="0 0 60 70" fill="none" xmlns="http://www.w3.org/2000/svg">
<path d="M13.1016 30.9453C13.1016 36.5508 16.9297 41.2676 22.1387 42.7031V45.6836C22.1387 48.7871 23.8477 50.4824 26.9648 50.4824H41.0195C44.1367 50.4824 45.8457 48.7871 45.8457 45.6836V31.5605C45.8457 28.457 44.1367 26.7617 41.0195 26.7617H37.082C35.3457 22.0859 30.793 18.75 25.4609 18.75C18.6387 18.75 13.1016 24.2051 13.1016 30.9453ZM16.4785 30.9453C16.4785 26.0918 20.4844 22.1406 25.4609 22.1406C28.8789 22.1406 31.8594 24.0137 33.377 26.7617H26.9648C23.8477 26.7617 22.1387 28.457 22.1387 31.5605V39.1348C18.8164 37.8359 16.4785 34.6641 16.4785 30.9453ZM27.3477 46.9551C26.2539 46.9551 25.666 46.4082 25.666 45.2461V31.998C25.666 30.8359 26.2539 30.2891 27.3477 30.2891H40.6367C41.7441 30.2891 42.3184 30.8359 42.3184 31.998V45.2461C42.3184 46.4082 41.7441 46.9551 40.6367 46.9551H27.3477Z" fill="black"/>
<path d="M12.0904 13.7795C12.0904 15.608 10.6081 17.0903 8.77955 17.0903C6.95105 17.0903 5.46875 15.608 5.46875 13.7795C5.46875 11.951 6.95105 10.4687 8.77955 10.4687C10.6081 10.4687 12.0904 11.951 12.0904 13.7795Z" fill="black"/>
<path d="M54.5313 13.7795C54.5313 15.608 53.049 17.0903 51.2205 17.0903C49.392 17.0903 47.9097 15.608 47.9097 13.7795C47.9097 11.951 49.392 10.4687 51.2205 10.4687C53.049 10.4687 54.5313 11.951 54.5313 13.7795Z" fill="black"/>
<path d="M54.5312 56.2205C54.5312 58.049 53.049 59.5313 51.2205 59.5313C49.392 59.5313 47.9097 58.049 47.9097 56.2205C47.9097 54.392 49.392 52.9097 51.2205 52.9097C53.049 52.9097 54.5312 54.392 54.5312 56.2205Z" fill="black"/>
<path d="M12.0904 56.2205C12.0904 58.049 10.6081 59.5313 8.77955 59.5313C6.95105 59.5313 5.46875 58.049 5.46875 56.2205C5.46875 54.392 6.95105 52.9097 8.77955 52.9097C10.6081 52.9097 12.0904 54.392 12.0904 56.2205Z" fill="black"/>
</svg>
