<svg width="56" height="56" viewBox="0 0 56 56" xmlns="http://www.w3.org/2000/svg">
<path d="M11.1016 23.9453C11.1016 29.5508 14.9297 34.2676 20.1387 35.7031V38.6836C20.1387 41.7871 21.8477 43.4824 24.9648 43.4824H39.0195C42.1367 43.4824 43.8457 41.7871 43.8457 38.6836V24.5605C43.8457 21.457 42.1367 19.7617 39.0195 19.7617H35.082C33.3457 15.0859 28.793 11.75 23.4609 11.75C16.6387 11.75 11.1016 17.2051 11.1016 23.9453ZM14.4785 23.9453C14.4785 19.0918 18.4844 15.1406 23.4609 15.1406C26.8789 15.1406 29.8594 17.0137 31.377 19.7617H24.9648C21.8477 19.7617 20.1387 21.457 20.1387 24.5605V32.1348C16.8164 30.8359 14.4785 27.6641 14.4785 23.9453ZM25.3477 39.9551C24.2539 39.9551 23.666 39.4082 23.666 38.2461V24.998C23.666 23.8359 24.2539 23.2891 25.3477 23.2891H38.6367C39.7441 23.2891 40.3184 23.8359 40.3184 24.998V38.2461C40.3184 39.4082 39.7441 39.9551 38.6367 39.9551H25.3477Z" />
<path d="M10.0903 6.77952C10.0903 8.60803 8.60803 10.0903 6.77952 10.0903C4.95102 10.0903 3.46872 8.60803 3.46872 6.77952C3.46872 4.95102 4.95102 3.46872 6.77952 3.46872C8.60803 3.46872 10.0903 4.95102 10.0903 6.77952Z" />
<path d="M52.5312 6.77952C52.5312 8.60803 51.049 10.0903 49.2205 10.0903C47.3919 10.0903 45.9096 8.60803 45.9096 6.77952C45.9096 4.95102 47.3919 3.46872 49.2205 3.46872C51.049 3.46872 52.5312 4.95102 52.5312 6.77952Z" />
<path d="M52.5312 49.2205C52.5312 51.049 51.049 52.5313 49.2205 52.5313C47.392 52.5313 45.9097 51.049 45.9097 49.2205C45.9097 47.392 47.392 45.9097 49.2205 45.9097C51.049 45.9097 52.5312 47.392 52.5312 49.2205Z" />
<path d="M10.0904 49.2205C10.0904 51.049 8.60806 52.5313 6.77955 52.5313C4.95105 52.5313 3.46875 51.049 3.46875 49.2205C3.46875 47.392 4.95105 45.9097 6.77955 45.9097C8.60806 45.9097 10.0904 47.392 10.0904 49.2205Z" />
</svg>
