<svg width="56" height="56" viewBox="0 0 56 56" xmlns="http://www.w3.org/2000/svg">
<path d="M11.4023 23.8086C11.4023 29.332 15.2031 33.9531 20.3574 35.2793V38.5742C20.3574 41.5684 21.957 43.168 24.9785 43.168H38.9238C41.9453 43.168 43.5449 41.5684 43.5449 38.5742V24.5605C43.5449 21.5527 41.9453 19.9668 38.9238 19.9668H34.6445C33.0312 15.3047 28.5742 11.9824 23.3379 11.9824C16.748 11.9824 11.4023 17.2734 11.4023 23.8086ZM14.3008 23.8086C14.3008 18.8867 18.3477 14.8809 23.3379 14.8809C26.9336 14.8809 30.0508 16.959 31.5 19.9668H24.9785C21.957 19.9668 20.3574 21.5527 20.3574 24.5605V32.2441C16.8301 31.0273 14.3008 27.7051 14.3008 23.8086ZM25.2383 40.1191C24.0488 40.1191 23.3926 39.5176 23.3926 38.2598V24.875C23.3926 23.6172 24.0488 23.0156 25.2383 23.0156H38.6641C39.8535 23.0156 40.5098 23.6172 40.5098 24.875V38.2598C40.5098 39.5176 39.8535 40.1191 38.6641 40.1191H25.2383Z" />
<path d="M9.46872 6.46872C9.46872 8.12558 8.12557 9.46872 6.46872 9.46872C4.81187 9.46872 3.46872 8.12558 3.46872 6.46872C3.46872 4.81187 4.81187 3.46872 6.46872 3.46872C8.12557 3.46872 9.46872 4.81187 9.46872 6.46872Z" />
<path d="M52.5313 6.46872C52.5313 8.12558 51.1881 9.46872 49.5313 9.46872C47.8744 9.46872 46.5313 8.12558 46.5313 6.46872C46.5313 4.81187 47.8744 3.46872 49.5313 3.46872C51.1881 3.46872 52.5313 4.81187 52.5313 6.46872Z" />
<path d="M52.5313 49.5313C52.5313 51.1881 51.1881 52.5313 49.5313 52.5313C47.8744 52.5313 46.5313 51.1881 46.5313 49.5313C46.5313 47.8744 47.8744 46.5313 49.5313 46.5313C51.1881 46.5313 52.5313 47.8744 52.5313 49.5313Z" />
<path d="M9.46872 49.5313C9.46872 51.1881 8.12557 52.5313 6.46872 52.5313C4.81187 52.5313 3.46872 51.1881 3.46872 49.5313C3.46872 47.8744 4.81187 46.5313 6.46872 46.5313C8.12557 46.5313 9.46872 47.8744 9.46872 49.5313Z" />
</svg>
