<svg width="60" height="70" viewBox="0 0 60 70" fill="none" xmlns="http://www.w3.org/2000/svg">
<path d="M27.293 24.8613H36.1523C34.0332 21.2109 30.041 18.75 25.4609 18.75C18.6387 18.75 13.1016 24.2051 13.1016 30.9453C13.1016 35.8535 16.0273 40.0645 20.2383 41.9922V31.8887C20.2383 27.5547 22.9316 24.8613 27.293 24.8613ZM22.4531 45.6836C22.4531 48.7871 24.1621 50.4824 27.293 50.4824H41.0195C44.1504 50.4824 45.8457 48.7871 45.8457 45.6836V31.8887C45.8457 28.7852 44.1504 27.0898 41.0195 27.0898H27.293C24.1621 27.0898 22.4531 28.7852 22.4531 31.8887V45.6836Z" fill="black"/>
<path d="M12.0904 13.7795C12.0904 15.608 10.6081 17.0903 8.77955 17.0903C6.95105 17.0903 5.46875 15.608 5.46875 13.7795C5.46875 11.951 6.95105 10.4687 8.77955 10.4687C10.6081 10.4687 12.0904 11.951 12.0904 13.7795Z" fill="black"/>
<path d="M54.5313 13.7795C54.5313 15.608 53.049 17.0903 51.2205 17.0903C49.392 17.0903 47.9097 15.608 47.9097 13.7795C47.9097 11.951 49.392 10.4687 51.2205 10.4687C53.049 10.4687 54.5313 11.951 54.5313 13.7795Z" fill="black"/>
<path d="M54.5312 56.2205C54.5312 58.049 53.049 59.5313 51.2205 59.5313C49.392 59.5313 47.9097 58.049 47.9097 56.2205C47.9097 54.392 49.392 52.9097 51.2205 52.9097C53.049 52.9097 54.5312 54.392 54.5312 56.2205Z" fill="black"/>
<path d="M12.0904 56.2205C12.0904 58.049 10.6081 59.5313 8.77955 59.5313C6.95105 59.5313 5.46875 58.049 5.46875 56.2205C5.46875 54.392 6.95105 52.9097 8.77955 52.9097C10.6081 52.9097 12.0904 54.392 12.0904 56.2205Z" fill="black"/>
</svg>
