<svg width="67" height="70" viewBox="0 0 67 70" fill="none" xmlns="http://www.w3.org/2000/svg">
<path d="M9.93214 60.0552C13.9253 64.0024 19.2725 64.0483 23.1968 60.1011C27.0064 56.2456 27.4194 52.0229 34.3501 43.2334L44.6314 53.5146L44.7461 55.9473C44.7691 56.6587 45.251 57.4619 46.0313 57.8521L53.7192 62.0518C54.4077 62.396 54.9585 62.5107 55.4175 62.0518L58.1025 59.3667C58.5386 58.9307 58.4468 58.3799 58.0566 57.6455L53.9028 50.0034C53.4898 49.2461 52.7095 48.7412 51.9522 48.7183L49.5195 48.6035L38.8711 37.9551C39.9268 36.7847 41.0972 35.5454 42.4053 34.2373C47.3164 36.5552 53.2603 35.7749 57.2075 31.8506C61.3384 27.7197 62.0498 21.2021 58.9746 15.9238L56.7485 18.1729L52.7324 22.166C52.1128 22.7856 51.3325 22.8315 50.667 22.166L47.8672 19.3433C47.2017 18.6548 47.1328 17.8516 47.7524 17.2319L51.7686 13.2617L54.0176 11.0127C48.7852 7.96045 42.2905 8.64893 38.1597 12.8027C34.4878 16.4746 33.5469 21.8677 35.314 26.5723L21.5674 12.7339C18.3316 9.521 14.8892 9.521 11.7451 12.665L8.69288 15.7173C5.54884 18.8613 5.54884 22.3037 8.76173 25.5166L22.21 38.9419C16.3579 42.8433 12.9844 43.6924 9.88624 46.7676C5.91602 50.6919 5.96192 56.062 9.93214 60.0552ZM45.4346 21.1792L48.8311 24.5527C50.5293 26.251 52.7095 26.2969 54.3159 24.6675L57.7124 21.248C58.1943 24.3462 57.2764 27.4673 55.0503 29.7163C51.1719 33.5947 44.7461 33.4111 40.6382 29.3491C36.5532 25.2642 36.3926 18.7925 40.294 14.937C42.52 12.7339 45.6411 11.793 48.6704 12.252L45.3198 15.6255C43.6216 17.3008 43.6675 19.458 45.4346 21.1792ZM25.4917 27.7886L16.4038 18.6318C16.0596 18.2876 16.0366 17.7368 16.4038 17.3696C16.7251 17.0254 17.3218 17.0024 17.689 17.3696L26.7998 26.4575C27.1441 26.8018 27.1441 27.3755 26.7769 27.7886C26.4785 28.1099 25.8359 28.1558 25.4917 27.7886ZM22.4854 30.749L13.3745 21.6841C13.0073 21.3169 13.0303 20.7432 13.3745 20.353C13.7417 20.0088 14.3384 20.0547 14.6597 20.353L23.7935 29.4868C24.1607 29.854 24.1377 30.4048 23.7935 30.749C23.4492 31.1162 22.8525 31.1162 22.4854 30.749ZM38.481 31.4834C38.9399 31.9194 39.3989 32.3555 39.9038 32.7227C24.023 49.0166 26.3867 52.2983 20.856 57.8062C18.3086 60.3765 14.8662 60.3994 12.2041 57.7832C9.56495 55.0981 9.61085 51.6787 12.1353 49.1313C17.689 43.6006 20.9707 45.9644 37.2647 30.0835C37.6318 30.5654 38.0449 31.0244 38.481 31.4834ZM16.4727 56.4062C18.0332 56.4062 19.3184 55.1211 19.3184 53.5605C19.3184 52 18.0332 50.7378 16.4727 50.7378C14.9121 50.7378 13.6499 52 13.6499 53.5605C13.6499 55.1211 14.9121 56.4062 16.4727 56.4062Z" fill="black"/>
</svg>
