<svg width="67" height="70" viewBox="0 0 67 70" fill="none" xmlns="http://www.w3.org/2000/svg">
<path d="M9.81642 60.0552C13.8096 64.0024 19.1567 64.0483 23.0811 60.1011C26.8906 56.2456 27.3037 52.0229 34.2344 43.2334L44.5156 53.5146L44.6304 55.9473C44.6533 56.6587 45.1353 57.4619 45.9155 57.8521L53.6035 62.0518C54.292 62.396 54.8428 62.5107 55.3018 62.0518L57.9868 59.3667C58.4229 58.9307 58.3311 58.3799 57.9409 57.6455L53.7871 50.0034C53.374 49.2461 52.5938 48.7412 51.8364 48.7183L49.4038 48.6035L38.7554 37.9551C39.811 36.7847 40.9815 35.5454 42.2896 34.2373C47.2007 36.5552 53.1445 35.7749 57.0918 31.8506C61.2227 27.7197 61.9341 21.2021 58.8589 15.9238L56.6328 18.1729L52.6167 22.166C51.9971 22.7856 51.2168 22.8315 50.5513 22.166L47.7515 19.3433C47.0859 18.6548 47.0171 17.8516 47.6367 17.2319L51.6528 13.2617L53.9019 11.0127C48.6694 7.96045 42.1748 8.64893 38.044 12.8027C34.3721 16.4746 33.4312 21.8677 35.1983 26.5723L21.4517 12.7339C18.2158 9.521 14.7734 9.521 11.6294 12.665L8.57716 15.7173C5.43311 18.8613 5.43311 22.3037 8.646 25.5166L22.0942 38.9419C16.2422 42.8433 12.8687 43.6924 9.77052 46.7676C5.8003 50.6919 5.8462 56.062 9.81642 60.0552ZM45.3189 21.1792L48.7153 24.5527C50.4136 26.251 52.5938 26.2969 54.2002 24.6675L57.5967 21.248C58.0786 24.3462 57.1607 27.4673 54.9346 29.7163C51.0562 33.5947 44.6304 33.4111 40.5225 29.3491C36.4375 25.2642 36.2769 18.7925 40.1782 14.937C42.4043 12.7339 45.5254 11.793 48.5547 12.252L45.2041 15.6255C43.5059 17.3008 43.5518 19.458 45.3189 21.1792ZM25.376 27.7886L16.2881 18.6318C15.9439 18.2876 15.9209 17.7368 16.2881 17.3696C16.6094 17.0254 17.2061 17.0024 17.5733 17.3696L26.6841 26.4575C27.0283 26.8018 27.0283 27.3755 26.6611 27.7886C26.3628 28.1099 25.7202 28.1558 25.376 27.7886ZM22.3696 30.749L13.2588 21.6841C12.8916 21.3169 12.9146 20.7432 13.2588 20.353C13.626 20.0088 14.2227 20.0547 14.544 20.353L23.6777 29.4868C24.0449 29.854 24.022 30.4048 23.6777 30.749C23.3335 31.1162 22.7368 31.1162 22.3696 30.749ZM38.3652 31.4834C38.8242 31.9194 39.2832 32.3555 39.7881 32.7227C23.9072 49.0166 26.271 52.2983 20.7402 57.8062C18.1929 60.3765 14.7505 60.3994 12.0884 57.7832C9.44923 55.0981 9.49513 51.6787 12.0195 49.1313C17.5733 43.6006 20.855 45.9644 37.1489 30.0835C37.5161 30.5654 37.9292 31.0244 38.3652 31.4834ZM16.3569 56.4062C17.9175 56.4062 19.2026 55.1211 19.2026 53.5605C19.2026 52 17.9175 50.7378 16.3569 50.7378C14.7964 50.7378 13.5342 52 13.5342 53.5605C13.5342 55.1211 14.7964 56.4062 16.3569 56.4062Z" fill="black"/>
</svg>
