<svg width="56" height="56" viewBox="0 0 56 56" xmlns="http://www.w3.org/2000/svg">
<path d="M4.32392 51.9199C8.31709 55.8672 13.6643 55.9131 17.5886 51.9658C21.3063 48.2022 21.7883 44.0713 28.2829 35.6948L38.3117 45.7007L38.633 47.7661C38.7477 48.5923 39.2756 49.3267 39.9641 49.7857L47.1472 54.6509C47.8815 55.1328 48.593 55.1328 49.0978 54.628L53.2058 50.52C53.6877 50.0152 53.6188 49.2808 53.1599 48.5694L48.3635 41.4092C47.8815 40.6978 47.1472 40.1929 46.321 40.0781L44.2556 39.7569L33.7678 29.2691C34.7087 28.2593 35.6955 27.2036 36.7971 26.1021C41.7082 28.4199 47.652 27.6397 51.5993 23.7154C55.7302 19.5845 56.4416 13.0669 53.3664 7.7886L51.1403 10.0376L47.1242 14.0308C46.5046 14.6504 45.7243 14.6963 45.0588 14.0308L42.259 11.208C41.5935 10.5196 41.5246 9.71633 42.1442 9.0967L46.1603 5.12649L48.4094 2.87746C43.1769 -0.174782 36.6823 0.513695 32.5515 4.6675C28.8796 8.33938 27.9387 13.7324 29.7058 18.437L15.9592 4.59866C12.7233 1.38576 9.28095 1.38576 6.13691 4.52981L3.08466 7.58205C-0.0593784 10.7261 -0.0593784 14.1685 3.15351 17.3814L16.6018 30.8067C10.7497 34.708 7.37617 35.5572 4.27802 38.6323C0.307809 42.5567 0.353708 47.9268 4.32392 51.9199ZM39.8264 13.044L43.2228 16.4175C44.9211 18.1157 47.1013 18.1616 48.7077 16.5322L52.1042 13.1128C52.5861 16.211 51.6682 19.3321 49.4421 21.5811C45.5637 25.4595 39.1379 25.2759 35.03 21.2139C30.945 17.1289 30.7844 10.6572 34.6857 6.80178C36.9118 4.59866 40.0329 3.65774 43.0622 4.11672L39.7116 7.49026C38.0134 9.16555 38.0593 11.3228 39.8264 13.044ZM5.21894 14.9947C3.54365 13.3194 3.5666 11.5752 5.21894 9.89993L8.45478 6.64114C10.0842 4.98879 11.8742 5.01174 13.5495 6.66409L28.2141 21.3286C24.6799 24.6563 21.7194 27.1118 19.1491 28.9937L5.21894 14.9947ZM19.5622 19.4239C19.8835 19.7681 20.4802 19.7222 20.7785 19.4239C21.1228 19.0337 21.1228 18.5059 20.8015 18.1846L12.2185 9.62453C11.8742 9.2803 11.3234 9.30325 11.0251 9.62453C10.6809 9.96877 10.7038 10.4966 11.0251 10.8179L19.5622 19.4239ZM16.7395 22.2237C17.0837 22.5679 17.6345 22.5679 17.9558 22.2237C18.277 21.9024 18.3 21.3745 17.9558 21.0303L9.37275 12.4473C9.07441 12.1719 8.50068 12.126 8.15644 12.4473C7.83515 12.8145 7.8122 13.3653 8.15644 13.6865L16.7395 22.2237ZM32.8727 23.3482C33.3317 23.7842 33.7907 24.2202 34.2956 24.5874C18.4147 40.8814 20.7785 44.1631 15.2478 49.6709C12.7004 52.2412 9.258 52.2642 6.5959 49.648C3.95674 46.9629 4.00263 43.5435 6.52705 40.9961C12.0808 35.4654 15.3625 37.8291 31.6564 21.9483C32.0236 22.4302 32.4367 22.8892 32.8727 23.3482ZM41.9836 46.94L41.5246 44.3697L30.3254 33.1704C30.7385 32.6885 31.1516 32.1836 31.6105 31.6787L42.9245 42.9697L45.4948 43.4058L49.8781 49.2349L47.7897 51.3233L41.9836 46.94ZM10.8644 48.271C12.425 48.271 13.7102 46.9859 13.7102 45.4253C13.7102 43.8648 12.425 42.6026 10.8644 42.6026C9.3039 42.6026 8.0417 43.8648 8.0417 45.4253C8.0417 46.9859 9.3039 48.271 10.8644 48.271Z" />
</svg>
