<svg width="56" height="56" viewBox="0 0 56 56" xmlns="http://www.w3.org/2000/svg">
<path d="M4.32392 51.973C8.31709 55.9203 13.6643 55.9662 17.5886 52.0189C21.3981 48.1634 21.8112 43.9408 28.7419 35.1512L39.0231 45.4325L39.1379 47.8651C39.1608 48.5765 39.6428 49.3797 40.423 49.7699L48.111 53.9696C48.7995 54.3138 49.3503 54.4286 49.8093 53.9696L52.4943 51.2845C52.9304 50.8485 52.8386 50.2977 52.4484 49.5633L48.2946 41.9212C47.8815 41.1639 47.1013 40.659 46.3439 40.6361L43.9113 40.5213L33.2629 29.8729C34.3186 28.7025 35.489 27.4632 36.7971 26.1551C41.7082 28.473 47.652 27.6927 51.5993 23.7684C55.7302 19.6375 56.4416 13.12 53.3664 7.84164L51.1403 10.0907L47.1242 14.0838C46.5046 14.7035 45.7243 14.7494 45.0588 14.0838L42.259 11.2611C41.5935 10.5726 41.5246 9.76938 42.1442 9.14975L46.1603 5.17953L48.4094 2.93051C43.1769 -0.121735 36.6823 0.566742 32.5515 4.72055C28.8796 8.39243 27.9387 13.7855 29.7058 18.4901L15.9592 4.6517C12.7233 1.43881 9.28095 1.43881 6.13691 4.58285L3.08466 7.6351C-0.0593784 10.7791 -0.0593784 14.2215 3.15351 17.4344L16.6018 30.8597C10.7497 34.7611 7.37617 35.6102 4.27802 38.6854C0.307809 42.6097 0.353708 47.9798 4.32392 51.973ZM39.8264 13.097L43.2228 16.4706C44.9211 18.1688 47.1013 18.2147 48.7077 16.5853L52.1042 13.1659C52.5861 16.264 51.6682 19.3851 49.4421 21.6341C45.5637 25.5125 39.1379 25.3289 35.03 21.2669C30.945 17.182 30.7844 10.7103 34.6857 6.85483C36.9118 4.6517 40.0329 3.71078 43.0622 4.16977L39.7116 7.5433C38.0134 9.2186 38.0593 11.3758 39.8264 13.097ZM19.8835 19.7064L10.7956 10.5497C10.4514 10.2054 10.4284 9.65463 10.7956 9.28745C11.1169 8.94321 11.7136 8.92026 12.0808 9.28745L21.1916 18.3753C21.5358 18.7196 21.5358 19.2933 21.1686 19.7064C20.8703 20.0277 20.2277 20.0736 19.8835 19.7064ZM16.8771 22.6668L7.76631 13.6019C7.39912 13.2347 7.42207 12.661 7.76631 12.2708C8.13349 11.9266 8.73017 11.9725 9.05146 12.2708L18.1853 21.4046C18.5524 21.7718 18.5295 22.3226 18.1853 22.6668C17.841 23.034 17.2443 23.034 16.8771 22.6668ZM32.8727 23.4012C33.3317 23.8372 33.7907 24.2733 34.2956 24.6405C18.4147 40.9344 20.7785 44.2162 15.2478 49.724C12.7004 52.2943 9.258 52.3172 6.5959 49.701C3.95674 47.016 4.00263 43.5965 6.52705 41.0492C12.0808 35.5184 15.3625 37.8822 31.6564 22.0013C32.0236 22.4832 32.4367 22.9422 32.8727 23.4012ZM10.8644 48.3241C12.425 48.3241 13.7102 47.0389 13.7102 45.4784C13.7102 43.9178 12.425 42.6556 10.8644 42.6556C9.3039 42.6556 8.0417 43.9178 8.0417 45.4784C8.0417 47.0389 9.3039 48.3241 10.8644 48.3241Z" />
</svg>
